<svg width="512" height="512" viewBox="0 0 512 512" fill="none" xmlns="http://www.w3.org/2000/svg">
<path d="M460.8 -2.23802e-06C489.077 -1.002e-06 512 22.923 512 51.2L512 460.8C512 489.077 489.077 512 460.8 512L51.2 512C22.923 512 9.13935e-06 489.077 1.03754e-05 460.8L2.82796e-05 51.2C2.95156e-05 22.923 22.9231 -2.13782e-05 51.2 -2.01422e-05L460.8 -2.23802e-06Z" fill="#86070E"/>
<mask id="mask0_429_2132" style="mask-type:alpha" maskUnits="userSpaceOnUse" x="0" y="0" width="512" height="512">
<path d="M460.8 -2.23802e-06C489.077 -1.002e-06 512 22.923 512 51.2L512 460.8C512 489.077 489.077 512 460.8 512L51.2 512C22.923 512 9.13935e-06 489.077 1.03754e-05 460.8L2.82796e-05 51.2C2.95156e-05 22.923 22.9231 -2.13782e-05 51.2 -2.01422e-05L460.8 -2.23802e-06Z" fill="#963B3B"/>
</mask>
<g mask="url(#mask0_429_2132)">
<path d="M26.013 356.757L-55.2908 507.326C-59.1997 514.515 -63.8903 512.917 -66.2356 504.53L-104.282 366.342C-105.845 360.352 -104.282 356.757 -99.0698 356.757H26.013ZM275.2 356.758L223.864 451.412C220.216 458.202 225.364 463.792 233.442 460.198L409.6 384C422.369 378.409 417.177 363.547 417.177 363.547L264.973 429.046L383.802 208.585C387.45 201.795 384.584 196.204 376.766 199.798L355.722 208.586L285.102 338.786L80.0416 338.785C80.0416 338.785 292.682 -50.8112 296.331 -57.6008C299.979 -64.3904 278.524 -70.3811 270.706 -66.3872L251.944 -57.6007L35.9154 338.785H-96.4639C-114.705 338.785 -118.093 345.974 -113.142 370.736L-77.4409 547.264C-73.5321 567.633 -54.4225 569.229 -42.9565 547.663L70.3998 356.757L275.2 356.758Z" fill="white"/>
<path d="M528.641 363.547L456.718 394.299L482.256 346.772C485.904 339.983 483.298 334.392 475.22 337.986L390.4 375.339C377.631 380.93 381.76 396.042 381.76 396.042L443.949 369.138L418.411 416.665C413.721 425.451 417.108 428.646 425.447 424.652L515.872 384.714C528.641 379.123 528.641 363.547 528.641 363.547ZM546.1 244.53C551.833 236.941 551.833 229.353 546.1 230.152L493.2 240.536C493.2 240.536 478.086 251.319 493.2 252.517L535.677 257.31L546.1 244.53Z" fill="white"/>
</g>
</svg>
