<svg width="199" height="43" viewBox="0 0 199 43" fill="none" xmlns="http://www.w3.org/2000/svg">
<path d="M10.2 17.7759H23.784V3.80791H33.192V39.9999H23.784V25.0719H10.2V39.9999H0.791992V3.80791H10.2V17.7759Z" fill="#86070E"/>
<path d="M47.6764 17.4279V39.9999H39.7124V17.4279H47.6764ZM39.1844 8.75991C39.1844 8.14391 39.3017 7.57191 39.5364 7.04391C39.771 6.48658 40.0937 6.00258 40.5044 5.59191C40.915 5.18124 41.3844 4.85858 41.9124 4.62391C42.4697 4.38925 43.0564 4.27191 43.6724 4.27191C44.2884 4.27191 44.8604 4.38925 45.3884 4.62391C45.9457 4.85858 46.4297 5.18124 46.8404 5.59191C47.251 6.00258 47.5737 6.48658 47.8084 7.04391C48.043 7.57191 48.1604 8.14391 48.1604 8.75991C48.1604 9.37591 48.043 9.96258 47.8084 10.5199C47.5737 11.0479 47.251 11.5172 46.8404 11.9279C46.4297 12.3386 45.9457 12.6612 45.3884 12.8959C44.8604 13.1306 44.2884 13.2479 43.6724 13.2479C43.0564 13.2479 42.4697 13.1306 41.9124 12.8959C41.3844 12.6612 40.915 12.3386 40.5044 11.9279C40.0937 11.5172 39.771 11.0479 39.5364 10.5199C39.3017 9.96258 39.1844 9.37591 39.1844 8.75991Z" fill="#86070E"/>
<path d="M52.5506 21.9039C52.5506 19.2159 53.0466 16.7199 54.0386 14.4159C55.0306 12.0799 56.4066 10.0479 58.1666 8.31991C59.9266 6.59191 62.0226 5.24791 64.4546 4.28791C66.9186 3.29591 69.6226 2.79991 72.5666 2.79991C75.4786 2.79991 78.1666 3.29591 80.6306 4.28791C83.0946 5.24791 85.2066 6.59191 86.9666 8.31991C88.7586 10.0479 90.1506 12.0799 91.1426 14.4159C92.1346 16.7199 92.6306 19.2159 92.6306 21.9039C92.6306 24.3999 92.2146 26.7199 91.3826 28.8639C90.5826 31.0079 89.4146 32.9119 87.8786 34.5759L94.0226 41.0079L85.3826 42.3519L82.0706 38.9439C80.6626 39.5839 79.1586 40.0799 77.5586 40.4319C75.9906 40.8159 74.3266 41.0079 72.5666 41.0079C69.6226 41.0079 66.9186 40.5279 64.4546 39.5679C62.0226 38.5759 59.9266 37.2159 58.1666 35.4879C56.4066 33.7599 55.0306 31.7439 54.0386 29.4399C53.0466 27.1039 52.5506 24.5919 52.5506 21.9039ZM62.3906 21.9039C62.3906 23.3439 62.6626 24.6719 63.2066 25.8879C63.7506 27.1039 64.4866 28.1599 65.4146 29.0559C66.3426 29.9519 67.4146 30.6559 68.6306 31.1679C69.8786 31.6479 71.1906 31.8879 72.5666 31.8879C73.3986 31.8879 74.2306 31.7919 75.0626 31.5999L69.6866 25.9359L78.5666 24.8319L81.0626 27.4719C82.2146 25.8719 82.7906 24.0159 82.7906 21.9039C82.7906 20.4639 82.5186 19.1359 81.9746 17.9199C81.4306 16.7039 80.6786 15.6479 79.7186 14.7519C78.7906 13.8559 77.7026 13.1679 76.4546 12.6879C75.2386 12.1759 73.9426 11.9199 72.5666 11.9199C71.1906 11.9199 69.8786 12.1759 68.6306 12.6879C67.4146 13.1679 66.3426 13.8559 65.4146 14.7519C64.4866 15.6479 63.7506 16.7039 63.2066 17.9199C62.6626 19.1359 62.3906 20.4639 62.3906 21.9039Z" fill="#86070E"/>
<path d="M105.473 17.4279V39.9999H97.5092V17.4279H105.473ZM96.9812 8.75991C96.9812 8.14391 97.0986 7.57191 97.3332 7.04391C97.5679 6.48658 97.8906 6.00258 98.3012 5.59191C98.7119 5.18124 99.1812 4.85858 99.7092 4.62391C100.267 4.38925 100.853 4.27191 101.469 4.27191C102.085 4.27191 102.657 4.38925 103.185 4.62391C103.743 4.85858 104.227 5.18124 104.637 5.59191C105.048 6.00258 105.371 6.48658 105.605 7.04391C105.84 7.57191 105.957 8.14391 105.957 8.75991C105.957 9.37591 105.84 9.96258 105.605 10.5199C105.371 11.0479 105.048 11.5172 104.637 11.9279C104.227 12.3386 103.743 12.6612 103.185 12.8959C102.657 13.1306 102.085 13.2479 101.469 13.2479C100.853 13.2479 100.267 13.1306 99.7092 12.8959C99.1812 12.6612 98.7119 12.3386 98.3012 11.9279C97.8906 11.5172 97.5679 11.0479 97.3332 10.5199C97.0986 9.96258 96.9812 9.37591 96.9812 8.75991Z" fill="#86070E"/>
<path d="M119.227 27.6159C119.227 28.4159 119.371 29.1679 119.659 29.8719C119.947 30.5439 120.331 31.1359 120.811 31.6479C121.323 32.1599 121.915 32.5599 122.587 32.8479C123.291 33.1359 124.043 33.2799 124.843 33.2799C125.611 33.2799 126.331 33.1359 127.003 32.8479C127.707 32.5599 128.299 32.1599 128.779 31.6479C129.291 31.1359 129.691 30.5439 129.979 29.8719C130.299 29.1999 130.459 28.4799 130.459 27.7119C130.459 26.9439 130.299 26.2239 129.979 25.5519C129.691 24.8479 129.291 24.2399 128.779 23.7279C128.299 23.2159 127.707 22.8159 127.003 22.5279C126.331 22.2399 125.611 22.0959 124.843 22.0959C124.075 22.0959 123.339 22.2399 122.635 22.5279C121.963 22.8159 121.371 23.2159 120.859 23.7279C120.379 24.2399 119.979 24.8319 119.659 25.5039C119.371 26.1439 119.227 26.8479 119.227 27.6159ZM130.171 0.159912H138.908V39.9999H130.171V37.2639C128.315 39.5999 125.803 40.7679 122.635 40.7679C120.843 40.7679 119.195 40.4319 117.691 39.7599C116.187 39.0879 114.875 38.1599 113.755 36.9759C112.635 35.7919 111.755 34.3999 111.115 32.7999C110.507 31.1999 110.203 29.4719 110.203 27.6159C110.203 25.8559 110.491 24.1919 111.067 22.6239C111.675 21.0239 112.523 19.6319 113.611 18.4479C114.699 17.2639 115.995 16.3359 117.499 15.6639C119.035 14.9599 120.715 14.6079 122.539 14.6079C125.611 14.6079 128.155 15.6799 130.171 17.8239V0.159912Z" fill="#86070E"/>
<path d="M152.884 27.6159C152.884 28.4159 153.028 29.1679 153.316 29.8719C153.604 30.5439 153.988 31.1359 154.468 31.6479C154.98 32.1599 155.572 32.5599 156.244 32.8479C156.948 33.1359 157.7 33.2799 158.5 33.2799C159.268 33.2799 159.988 33.1359 160.66 32.8479C161.364 32.5599 161.956 32.1599 162.436 31.6479C162.948 31.1359 163.348 30.5439 163.636 29.8719C163.956 29.1999 164.116 28.4799 164.116 27.7119C164.116 26.9439 163.956 26.2239 163.636 25.5519C163.348 24.8479 162.948 24.2399 162.436 23.7279C161.956 23.2159 161.364 22.8159 160.66 22.5279C159.988 22.2399 159.268 22.0959 158.5 22.0959C157.7 22.0959 156.948 22.2399 156.244 22.5279C155.572 22.8159 154.98 23.2159 154.468 23.7279C153.988 24.2399 153.604 24.8319 153.316 25.5039C153.028 26.1439 152.884 26.8479 152.884 27.6159ZM163.828 15.3759H172.564V39.9999H163.828V37.2639C161.972 39.5999 159.46 40.7679 156.292 40.7679C154.5 40.7679 152.852 40.4479 151.348 39.8079C149.844 39.1359 148.532 38.2079 147.412 37.0239C146.292 35.8399 145.412 34.4479 144.772 32.8479C144.164 31.2479 143.86 29.5039 143.86 27.6159C143.86 25.8559 144.164 24.1919 144.772 22.6239C145.38 21.0239 146.228 19.6319 147.316 18.4479C148.404 17.2639 149.7 16.3359 151.204 15.6639C152.708 14.9599 154.372 14.6079 156.196 14.6079C159.268 14.6079 161.812 15.6799 163.828 17.8239V15.3759Z" fill="#86070E"/>
<path d="M194.796 21.7119C193.196 20.8799 191.628 20.4639 190.092 20.4639C189.292 20.4639 188.636 20.6239 188.124 20.9439C187.644 21.2639 187.404 21.6959 187.404 22.2399C187.404 22.5279 187.436 22.7679 187.5 22.9599C187.596 23.1199 187.772 23.2799 188.028 23.4399C188.316 23.5999 188.716 23.7439 189.228 23.8719C189.772 23.9999 190.476 24.1599 191.34 24.3519C193.74 24.8319 195.532 25.6959 196.716 26.9439C197.9 28.1599 198.492 29.7279 198.492 31.6479C198.492 33.0879 198.204 34.3839 197.628 35.5359C197.052 36.6879 196.252 37.6639 195.228 38.4639C194.204 39.2319 192.972 39.8239 191.532 40.2399C190.092 40.6879 188.508 40.9119 186.78 40.9119C183.452 40.9119 180.172 39.9679 176.94 38.0799L180.108 31.9359C182.54 33.5999 184.844 34.4319 187.02 34.4319C187.82 34.4319 188.476 34.2559 188.988 33.9039C189.5 33.5519 189.756 33.1039 189.756 32.5599C189.756 32.2399 189.708 31.9839 189.612 31.7919C189.548 31.5679 189.388 31.3759 189.132 31.2159C188.876 31.0239 188.492 30.8639 187.98 30.7359C187.5 30.5759 186.86 30.4159 186.06 30.2559C183.372 29.7119 181.484 28.9119 180.396 27.8559C179.34 26.7679 178.812 25.2799 178.812 23.3919C178.812 22.0159 179.068 20.7839 179.58 19.6959C180.092 18.5759 180.828 17.6319 181.788 16.8639C182.748 16.0959 183.9 15.5039 185.244 15.0879C186.62 14.6719 188.14 14.4639 189.804 14.4639C192.524 14.4639 195.164 14.9919 197.724 16.0479L194.796 21.7119Z" fill="#86070E"/>
</svg>
